<?xml version="1.0" encoding="UTF-8" standalone="no"?>
<!DOCTYPE svg PUBLIC "-//W3C//DTD SVG 1.0//EN"
	"http://www.w3.org/TR/2001/REC-SVG-20010904/DTD/svg10.dtd">
<svg
   xmlns:svg="http://www.w3.org/2000/svg"
   xmlns="http://www.w3.org/2000/svg"
   version="1.0"
   width="404.22961"
   height="600"
   id="svg2282">
  <defs
     id="defs2284" />
  <g
     transform="translate(-47,-82.36218)"
     id="layer1">
    <path
       d="M 344.28097,82.36218 L 269.90408,384.40145 C 276.98332,390.52425 282.99334,399.6728 287.29456,410.85538 L 396.84894,299.88484 L 344.28097,82.36218 z M 155.76133,113.17789 L 117.69486,350.64013 L 208.55589,418.7859 C 213.10886,403.10833 220.77651,390.47269 230.19486,383.09858 L 155.76133,113.17789 z M 451.22961,281.75795 L 292.50604,429.54874 C 293.82309,436.68324 294.54532,444.29097 294.54532,452.1507 C 294.54532,452.87409 294.50062,453.5847 294.48867,454.30327 L 429.47734,455.77608 L 418.60121,394.14466 L 451.22961,281.75795 z M 47,337.9513 L 103.19335,446.71263 L 94.129909,519.22019 L 205.44033,471.29723 C 204.49192,465.16445 203.96752,458.78039 203.96752,452.1507 C 203.96752,447.01767 204.2404,441.98844 204.81722,437.13937 L 47,337.9513 z M 293.1858,470.39088 C 292.64772,474.0563 291.98779,477.66192 291.14653,481.09707 L 376.90937,559.09934 L 425.85196,486.59179 L 293.1858,470.39088 z M 209.12236,487.32819 L 92.317221,555.47396 L 173.88822,662.4226 L 226.17296,517.63408 C 218.94062,510.41396 213.03207,499.89846 209.12236,487.32819 z M 284.2923,500.30025 C 281.38262,506.27485 277.94348,511.50663 274.09592,515.76475 L 318.90332,651.54647 L 364.22054,584.47698 L 284.2923,500.30025 z M 263.44637,524.37502 C 258.97438,526.86294 254.1941,528.28363 249.2281,528.28363 C 246.28144,528.28363 243.40802,527.77283 240.61782,526.86747 L 204.70393,667.86067 L 295.33837,682.36218 L 263.44637,524.37502 z "
       style="opacity:1;fill:#000000;fill-opacity:1;stroke:none;stroke-width:0.5;stroke-linecap:butt;stroke-linejoin:round;stroke-opacity:1"
       id="path2380" />
  </g>
</svg>
